<svg width="600" height="546" viewBox="0 0 600 546" fill="none" xmlns="http://www.w3.org/2000/svg">
<path d="M518.998 536.062V369.548L462.989 430.899V536.062H518.998Z" fill="#0C6D70"/>
<path d="M375.396 536.062H435.711V454.038L375.396 498.279V536.062Z" fill="#65A753"/>
<path d="M268.01 537.848L331.739 507.745C344.148 501.885 355.948 494.811 366.963 486.622L412.757 452.623C420.758 446.678 428.226 440.047 435.07 432.798L453.489 415.111C456.074 412.602 458.55 409.983 460.916 407.255L478.113 387.276C489.256 375.482 499.265 362.664 508.008 348.988L539.493 299.627C541.523 296.447 543.25 293.084 544.647 289.579L561.514 247.141L600 279.319L582.763 131.057L466.149 201.173L513.261 217.252L495.035 264.636C492.334 271.734 489.093 278.613 485.341 285.215L458.2 333.008C454.358 339.706 450.137 346.182 445.56 352.404L419.659 387.684C415.099 393.918 410.158 399.863 404.866 405.49L375.475 436.698C369.347 443.203 362.786 449.288 355.834 454.91L341.216 466.742C331.908 474.28 321.876 480.873 311.263 486.43L280.108 502.78L246.219 521.167L268.01 537.848Z" fill="url(#paint0_linear_128_325)"/>
<path d="M261.942 540.66C255.661 544.093 254.188 545.954 246.431 545.838C234.643 545.607 222.902 544.23 211.379 541.727C190.615 537.848 172.799 532.649 165.431 529.47C125.086 512.013 104.924 503.186 83.5788 482.918C67.3927 467.331 53.8977 449.169 43.6409 429.172C36.4093 415.595 29.5461 402.6 26.425 383.787C24.0403 369.569 24.6412 357.174 25.2617 344.411C25.8238 332.95 26.2699 323.892 29.0035 312.506C31.9046 299.863 36.5435 287.682 42.7877 276.313C33.851 284.494 25.4819 293.273 17.7395 302.594C8.7824 313.903 0 327.284 0 327.284C0 327.284 2.96617 256.083 45.0756 202.182C64.4627 177.335 60.4496 179.217 108.065 143.761C115.142 138.486 125.049 137.108 128.091 128.031C135.848 104.969 149.206 78.0479 161.691 63.3845C193.021 26.6487 231.175 5.70106 241.991 0.192629C242.213 0.0822967 242.452 0.0178603 242.7 0.00321608C242.945 -0.0114282 243.19 0.0240457 243.424 0.107453C243.657 0.190859 243.867 0.320467 244.048 0.488469C244.229 0.656471 244.375 0.859362 244.474 1.08486C248.351 9.21174 253.896 30.5473 254.614 53.1824C255.39 77.718 256.764 106.191 256.764 106.191C256.764 106.191 268.398 73.4123 289.509 49.4388C308.258 28.1033 334.527 13.2267 343.66 8.43589C344.512 8.00917 344.707 8.82381 344.842 9.75482C346.913 30.9825 344.197 52.4049 336.892 72.4423C329.427 91.8382 317.505 113.95 314.346 126.596C313.821 128.749 321.849 132.046 323.109 133.074C340.343 146.864 341.642 143.412 356.434 169.694C363.491 182.262 359.072 191.669 367.913 207.923C373.36 217.704 380.594 226.376 389.238 233.486C420.005 260.059 442.709 255.85 453.217 271.173C457.636 277.612 451.277 288.629 444.996 298.23C442.96 301.313 434.159 311.555 417.66 322.862C413.491 325.733 400.947 331.611 361.942 334.344C323.943 337.022 319.579 332.174 306.513 338.941C298.783 343.072 292.067 348.868 286.849 355.913C281.633 362.955 278.045 371.074 276.347 379.674C274.115 392.229 275.693 405.167 280.883 416.818C295.384 447.85 337.534 456.967 337.534 456.967C337.534 456.967 304.573 493.063 278.208 507.705C260.76 517.404 268.068 537.769 268.068 537.769C268.068 537.769 263.532 539.788 261.942 540.66Z" fill="#F96334"/>
<path d="M435.265 263.376C427.955 261.805 420.627 267.837 419.329 274.16C418.824 276.604 419.579 281.22 421.481 290.53C422.742 296.698 423.127 297.454 422.78 299.16C421.578 304.98 414.463 308.588 408.567 310.8C385.691 319.294 359.886 316.386 359.886 316.386C332.879 313.358 308.897 312.369 287.068 315.105C240.944 320.922 218.707 371.625 217.701 373.72C201.569 407.506 208.549 438.696 212.543 456.482C215.335 468.974 227.741 493.469 241.624 511.468C249.285 521.331 258.15 530.19 268.01 537.848C268.01 537.848 268.69 514.379 288.949 502.314C315.218 486.66 337.418 457.045 337.418 457.045C337.418 457.045 279.836 440.461 276.598 399.925C275.437 385.493 274.912 371.684 285.344 357.97C291.035 350.277 298.214 343.807 306.455 338.941C313.377 336.053 320.026 334.21 323.903 334.443C335.962 335.237 344.629 335.237 347.17 335.102C361.942 334.347 401.84 336.421 426.54 317.162C441.508 305.522 455.621 288.067 454.632 273.869C454.323 269.233 442.38 264.908 435.265 263.376Z" fill="#0C7274"/>
<path d="M264.946 536.567C264.946 536.567 238.152 532.165 224.736 524.076C202.674 510.75 168.689 490.248 148.779 447.287C141.104 431.538 136.498 414.469 135.206 396.993C133.628 373.27 137.055 349.481 145.27 327.168L122.12 352.247C118.03 356.689 114.307 361.459 110.992 366.503L93.8538 392.687C93.8538 392.687 89.9763 347.185 109.655 311.651C120.728 290.438 137.397 272.662 157.852 260.251C178.304 247.839 201.764 241.267 225.687 241.245C260.702 240.43 289.976 252.689 323.05 266.46C356.746 280.561 364.521 284.925 385.089 287.155C403.625 289.095 410.953 288.3 420.705 290.026C421.907 290.239 423.147 294.641 423.013 297.629C422.762 299.396 422.129 301.088 421.154 302.582C420.18 304.078 418.888 305.342 417.371 306.281C411.884 310.158 403.797 312.214 401.86 312.836C399.27 313.609 396.633 314.224 393.969 314.676C386.644 315.975 379.229 316.683 371.79 316.791C358.937 317.045 331.405 313.457 313.336 313.437C293.447 313.437 283.5 315.26 271.986 319.256C246.218 328.352 234.1 346.275 227.085 356.651C215.498 373.994 208.73 394.111 207.481 414.936C206.688 424.787 208.704 433.478 210.06 441.488C212.397 455.616 216.834 469.312 223.225 482.124C233.429 502.833 247.604 521.334 264.946 536.567Z" fill="#FEEECA"/>
<path d="M139.666 423.005C141.848 407.401 145.034 391.955 149.205 376.765C163.085 327.033 204.555 301.975 204.555 301.975C204.555 301.975 163.514 308.568 146.723 327.596C144.278 330.77 142.534 334.426 141.606 338.323C139.106 347.255 137.283 356.365 136.157 365.572C135.066 374.814 134.704 384.128 135.072 393.425C135.556 404.405 139.666 423.005 139.666 423.005Z" fill="#FAD8A1"/>
<path d="M173.767 156.911L190.459 141.22C200.261 132.034 211.11 124.033 222.778 117.382L230.205 113.173L227.819 43.988C211.235 58.5756 197.866 76.456 188.56 96.4928C187.166 99.5184 185.865 102.602 184.683 105.706C179.642 118.787 176.384 132.487 174.989 146.437L173.767 156.911Z" fill="#13635E"/>
<path d="M263.589 187.091C276.991 184.117 290.873 184.044 304.304 186.878C315.821 189.535 322.005 198.845 325.841 204.334C331.728 212.637 336.305 221.795 339.415 231.488C334.57 225.867 327.959 222.064 320.666 220.704C312.717 219.502 310.526 223.652 304.517 221.79C296.547 219.308 296.897 210.909 288.368 201.735C281.74 194.505 273.117 189.409 263.589 187.091Z" fill="#13635E"/>
<path d="M257.543 104.116L314.346 126.595L317.739 116.568L321.732 107.141L329.702 89.491L337.727 70.0951L343.351 48.4492L345.288 31.7494L344.358 9.79323C344.346 9.63238 344.296 9.47675 344.212 9.34043C344.124 9.20409 344.005 9.09137 343.865 9.01243C343.725 8.93346 343.567 8.89081 343.407 8.8883C343.246 8.88577 343.086 8.92348 342.943 8.99799L333.366 14.1379L315.451 26.0276L297.286 41.3116L280.982 60.3002L268.768 80.0645L257.543 104.116Z" fill="#E85130"/>
<path d="M262.388 539.767C259.967 541.5 257.368 542.961 254.634 544.131C252.301 544.936 249.865 545.4 247.403 545.508C233.269 545.995 223.593 543.568 212.35 541.398C191.586 537.518 173.768 532.34 166.402 529.14C126.058 511.684 105.894 502.856 84.5485 482.588C68.3452 466.999 54.8364 448.831 44.5718 428.822C37.3405 415.342 30.4773 402.249 27.3367 383.437C24.9711 369.219 25.5721 356.826 26.1733 344.064C26.7355 332.599 27.1815 323.542 29.9152 312.176C32.8186 299.528 37.4575 287.341 43.6993 275.964C34.7626 284.145 26.3936 292.926 18.6511 302.246C9.69402 313.553 0.911621 326.937 0.911621 326.937C0.911621 326.937 19.7369 289.638 44.3393 263.454C69.5427 236.687 109.19 227.688 109.19 227.688C94.1054 241.731 81.8855 258.567 73.2069 277.264C46.7238 333.513 63.5132 391.698 65.898 399.671C81.5436 451.322 116.653 479.195 143.001 500.085C165.547 517.988 187.884 529.507 217.972 538.023C232.452 541.981 247.642 542.579 262.388 539.767Z" fill="#E95330"/>
<defs>
<linearGradient id="paint0_linear_128_325" x1="382.9" y1="442.871" x2="575.662" y2="164.434" gradientUnits="userSpaceOnUse">
<stop stop-color="#0C7274"/>
<stop offset="1" stop-color="#239387"/>
</linearGradient>
</defs>
</svg>
