<svg width="600" height="546" fill="none" xmlns="http://www.w3.org/2000/svg"><path d="M518.998 536.062V369.548l-56.009 61.351v105.163h56.009Z" fill="#0C6D70"/><path d="M375.396 536.062h60.315v-82.024l-60.315 44.241v37.783Z" fill="#65A753"/><path d="m268.01 537.848 63.729-30.103a207.672 207.672 0 0 0 35.224-21.123l45.794-33.999a170.675 170.675 0 0 0 22.313-19.825l18.419-17.687a125.898 125.898 0 0 0 7.427-7.856l17.197-19.979a258.47 258.47 0 0 0 29.895-38.288l31.485-49.361a59.874 59.874 0 0 0 5.154-10.048l16.867-42.438L600 279.319l-17.237-148.262-116.614 70.116 47.112 16.079-18.226 47.384a148.64 148.64 0 0 1-9.694 20.579L458.2 333.008a204.19 204.19 0 0 1-12.64 19.396l-25.901 35.28a188.024 188.024 0 0 1-14.793 17.806l-29.391 31.208a198.239 198.239 0 0 1-19.641 18.212l-14.618 11.832a180.98 180.98 0 0 1-29.953 19.688l-31.155 16.35-33.889 18.387 21.791 16.681Z" fill="url(#a)"/><path d="M261.942 540.66c-6.281 3.433-7.754 5.294-15.511 5.178a181.937 181.937 0 0 1-35.052-4.111c-20.764-3.879-38.58-9.078-45.948-12.257-40.345-17.457-60.507-26.284-81.852-46.552a203.64 203.64 0 0 1-39.938-53.746c-7.232-13.577-14.095-26.572-17.216-45.385-2.385-14.218-1.784-26.613-1.163-39.376.562-11.461 1.008-20.519 3.741-31.905a140.423 140.423 0 0 1 13.785-36.193 266.424 266.424 0 0 0-25.048 26.281C8.781 313.903 0 327.284 0 327.284s2.966-71.201 45.076-125.102c19.387-24.847 15.374-22.965 62.989-58.421 7.077-5.275 16.984-6.653 20.026-15.73 7.757-23.062 21.115-49.983 33.6-64.647 31.33-36.735 69.484-57.683 80.3-63.191a1.83 1.83 0 0 1 1.433-.086c.233.084.443.213.624.381s.327.371.426.597c3.877 8.127 9.422 29.462 10.14 52.097.776 24.536 2.15 53.009 2.15 53.009s11.634-32.779 32.745-56.752c18.749-21.336 45.018-36.212 54.151-41.003.852-.427 1.047.388 1.182 1.319a142.597 142.597 0 0 1-7.95 62.687c-7.465 19.396-19.387 41.508-22.546 54.154-.525 2.153 7.503 5.45 8.763 6.478 17.234 13.79 18.533 10.338 33.325 36.62 7.057 12.568 2.638 21.975 11.479 38.229a89.454 89.454 0 0 0 21.325 25.563c30.767 26.573 53.471 22.364 63.979 37.687 4.419 6.439-1.94 17.456-8.221 27.057-2.036 3.083-10.837 13.325-27.336 24.632-4.169 2.871-16.713 8.749-55.718 11.482-37.999 2.678-42.363-2.17-55.429 4.597a59.18 59.18 0 0 0-30.166 40.733 63.828 63.828 0 0 0 4.536 37.144c14.501 31.032 56.651 40.149 56.651 40.149s-32.961 36.096-59.326 50.738c-17.448 9.699-10.14 30.064-10.14 30.064s-4.536 2.019-6.126 2.891Z" fill="#F96334"/><path d="M435.265 263.376c-7.31-1.571-14.638 4.461-15.936 10.784-.505 2.444.25 7.06 2.152 16.37 1.261 6.168 1.646 6.924 1.299 8.63-1.202 5.82-8.317 9.428-14.213 11.64-22.876 8.494-48.681 5.586-48.681 5.586-27.007-3.028-50.989-4.017-72.818-1.281-46.124 5.817-68.361 56.52-69.367 58.615-16.132 33.786-9.152 64.976-5.158 82.762 2.792 12.492 15.198 36.987 29.081 54.986a149.597 149.597 0 0 0 26.386 26.38s.68-23.469 20.939-35.534c26.269-15.654 48.469-45.269 48.469-45.269s-57.582-16.584-60.82-57.12c-1.161-14.432-1.686-28.241 8.746-41.955a71.438 71.438 0 0 1 21.111-19.029c6.922-2.888 13.571-4.731 17.448-4.498 12.059.794 20.726.794 23.267.659 14.772-.755 54.67 1.319 79.37-17.94 14.968-11.64 29.081-29.095 28.092-43.293-.309-4.636-12.252-8.961-19.367-10.493Z" fill="#0C7274"/><path d="M264.946 536.567s-26.794-4.402-40.21-12.491c-22.062-13.326-56.047-33.828-75.957-76.789a138.037 138.037 0 0 1-13.573-50.294 169.527 169.527 0 0 1 10.064-69.825l-23.15 25.079a111.28 111.28 0 0 0-11.128 14.256l-17.138 26.184s-3.878-45.502 15.801-81.036a131.058 131.058 0 0 1 48.197-51.4 130.98 130.98 0 0 1 67.835-19.006c35.015-.815 64.289 11.444 97.363 25.215 33.696 14.101 41.471 18.465 62.039 20.695 18.536 1.94 25.864 1.145 35.616 2.871 1.202.213 2.442 4.615 2.308 7.603a12.202 12.202 0 0 1-1.859 4.953 12.142 12.142 0 0 1-3.783 3.699c-5.487 3.877-13.574 5.933-15.511 6.555a66.496 66.496 0 0 1-7.891 1.84 138.518 138.518 0 0 1-22.179 2.115c-12.853.254-40.385-3.334-58.454-3.354-19.889 0-29.836 1.823-41.35 5.819-25.768 9.096-37.886 27.019-44.901 37.395a117.595 117.595 0 0 0-19.604 58.285c-.793 9.851 1.223 18.542 2.579 26.552a143.494 143.494 0 0 0 13.165 40.636 176.001 176.001 0 0 0 41.721 54.443Z" fill="#FEEECA"/><path d="M139.666 423.005a366.12 366.12 0 0 1 9.539-46.24c13.88-49.732 55.35-74.79 55.35-74.79s-41.041 6.593-57.832 25.621a28.333 28.333 0 0 0-5.117 10.727 183.956 183.956 0 0 0-5.449 27.249 177.66 177.66 0 0 0-1.085 27.853c.484 10.98 4.594 29.58 4.594 29.58Z" fill="#FAD8A1"/><path d="m173.767 156.911 16.692-15.691a171.377 171.377 0 0 1 32.319-23.838l7.427-4.209-2.386-69.185a159.281 159.281 0 0 0-39.259 52.505 147.53 147.53 0 0 0-3.877 9.213 156.602 156.602 0 0 0-9.694 40.731l-1.222 10.474ZM263.589 187.091a96.23 96.23 0 0 1 40.715-.213c11.517 2.657 17.701 11.967 21.537 17.456a99.504 99.504 0 0 1 13.574 27.154 32.654 32.654 0 0 0-18.749-10.784c-7.949-1.202-10.14 2.948-16.149 1.086-7.97-2.482-7.62-10.881-16.149-20.055a49.481 49.481 0 0 0-24.779-14.644Z" fill="#13635E"/><path d="m257.543 104.116 56.803 22.479 3.393-10.027 3.993-9.427 7.97-17.65 8.025-19.396 5.624-21.646 1.937-16.7-.93-21.956a1.006 1.006 0 0 0-.146-.453.996.996 0 0 0-.347-.328.965.965 0 0 0-.922-.014l-9.577 5.14-17.915 11.89-18.165 15.284L280.982 60.3l-12.214 19.764-11.225 24.052Z" fill="#E85130"/><path d="M262.388 539.767a41.09 41.09 0 0 1-7.754 4.364 25.613 25.613 0 0 1-7.231 1.377c-14.134.487-23.81-1.94-35.053-4.11-20.764-3.88-38.582-9.058-45.948-12.258-40.344-17.456-60.508-26.284-81.853-46.552a203.51 203.51 0 0 1-39.977-53.766c-7.232-13.48-14.095-26.573-17.235-45.385-2.366-14.218-1.765-26.611-1.164-39.373.563-11.465 1.009-20.522 3.742-31.888A140.763 140.763 0 0 1 43.7 275.964a266.558 266.558 0 0 0-25.048 26.282C9.694 313.553.911 326.937.911 326.937s18.826-37.299 43.428-63.483c25.204-26.767 64.851-35.766 64.851-35.766a159.458 159.458 0 0 0-35.983 49.576c-26.483 56.249-9.694 114.434-7.309 122.407 15.646 51.651 50.755 79.524 77.103 100.414 22.546 17.903 44.883 29.422 74.971 37.938a98.479 98.479 0 0 0 44.416 1.744Z" fill="#E95330"/><defs><linearGradient id="a" x1="382.9" y1="442.871" x2="575.662" y2="164.434" gradientUnits="userSpaceOnUse"><stop stop-color="#0C7274"/><stop offset="1" stop-color="#239387"/></linearGradient></defs></svg>